<?xml version="1.0" encoding="UTF-8" standalone="no"?>
<!DOCTYPE svg PUBLIC "-//W3C//DTD SVG 20010904//EN"
              "http://www.w3.org/TR/2001/REC-SVG-20010904/DTD/svg10.dtd">

<svg xmlns="http://www.w3.org/2000/svg"
     width="1.66667in" height="1.66667in"
     viewBox="0 0 500 500">
  <path id="Unnamed"
        fill="none" stroke="black" stroke-width="1"
        d="M 62.00,212.50
           C 62.00,212.50 69.00,191.00 69.00,191.00
             69.00,191.00 78.50,197.50 78.50,197.50
             78.50,197.50 69.50,252.00 69.50,252.00
             69.50,252.00 97.00,196.00 97.00,196.00
             97.00,196.00 102.50,207.50 102.50,207.50
             102.50,207.50 90.00,251.50 90.00,251.50
             90.00,251.50 117.50,199.00 117.50,199.00
             117.50,199.00 122.00,209.00 122.00,209.00
             122.00,209.00 111.50,251.50 111.50,251.50
             111.50,251.50 142.00,234.50 142.00,234.50
             142.00,234.50 141.00,228.50 141.00,228.50
             141.00,228.50 133.50,233.00 133.50,233.00
             133.50,233.00 131.00,252.50 131.00,252.50
             131.00,252.50 144.50,247.50 144.50,247.50
             144.50,247.50 156.00,229.50 156.00,229.50
             156.00,229.50 153.50,225.00 153.50,225.00
             153.50,225.00 165.50,230.00 165.50,230.00
             165.50,230.00 158.50,249.50 158.50,249.50
             158.50,249.50 162.00,253.00 162.00,253.00
             162.00,253.00 174.00,230.00 174.00,230.00
             174.00,230.00 173.50,224.00 173.50,224.00
             173.50,224.00 184.00,228.50 184.00,228.50
             184.00,228.50 177.50,251.50 177.50,251.50
             177.50,251.50 183.00,254.50 183.00,254.50
             183.00,254.50 197.50,235.50 197.50,235.50
             197.50,235.50 198.00,229.50 198.00,229.50
             198.00,229.50 198.50,253.00 198.50,253.00
             198.50,253.00 211.00,249.50 211.00,249.50
             211.00,249.50 215.50,230.00 215.50,230.00
             215.50,230.00 200.50,270.50 200.50,270.50
             200.50,270.50 187.50,270.00 187.50,270.00
             187.50,270.00 265.50,214.50 265.50,214.50
             265.50,214.50 279.50,205.50 279.50,205.50
             279.50,205.50 280.50,194.00 280.50,194.00
             280.50,194.00 272.50,191.00 272.50,191.00
             272.50,191.00 260.50,198.50 260.50,198.50
             260.50,198.50 248.50,213.00 248.50,213.00
             248.50,213.00 244.00,237.00 244.00,237.00
             244.00,237.00 251.50,252.00 251.50,252.00
             251.50,252.00 273.00,252.00 273.00,252.00
             273.00,252.00 286.00,238.50 286.00,238.50
             286.00,238.50 294.50,203.00 294.50,203.00
             294.50,203.00 296.00,188.50 296.00,188.50
             296.00,188.50 286.00,252.50 286.00,252.50
             286.00,252.50 302.00,230.50 302.00,230.50
             302.00,230.50 306.00,252.00 306.00,252.00
             306.00,252.00 320.50,230.50 320.50,230.50
             320.50,230.50 319.50,225.50 319.50,225.50
             319.50,225.50 327.00,233.00 327.00,233.00
             327.00,233.00 321.00,252.00 321.00,252.00
             321.00,252.00 328.50,253.00 328.50,253.00
             328.50,253.00 341.00,234.00 341.00,234.00
             341.00,234.00 342.00,228.00 342.00,228.00
             342.00,228.00 338.00,253.50 338.00,253.50
             338.00,253.50 348.00,252.00 348.00,252.00
             348.00,252.00 354.50,255.00 354.50,255.00
             354.50,255.00 363.00,246.50 363.00,246.50
             363.00,246.50 354.00,235.50 354.00,235.50
             354.00,235.50 358.00,230.50 358.00,230.50
             358.00,230.50 366.00,233.50 366.00,233.50
             366.00,233.50 371.50,230.00 371.50,230.00
             371.50,230.00 381.50,226.00 381.50,226.00
             381.50,226.00 382.00,216.50 382.00,216.50
             382.00,216.50 376.50,246.50 376.50,246.50
             376.50,246.50 379.00,253.50 379.00,253.50
             379.00,253.50 393.00,244.50 393.00,244.50
             393.00,244.50 396.00,228.00 396.00,228.00
             396.00,228.00 391.50,254.50 391.50,254.50
             391.50,254.50 398.00,233.00 398.00,233.00
             398.00,233.00 409.50,230.00 409.50,230.00
             409.50,230.00 407.00,252.00 407.00,252.00
             407.00,252.00 423.00,228.00 423.00,228.00
             423.00,228.00 427.50,233.00 427.50,233.00
             427.50,233.00 425.00,252.50 425.00,252.50
             425.00,252.50 439.00,245.00 439.00,245.00
             439.00,245.00 447.00,229.00 447.00,229.00
             447.00,229.00 458.50,234.00 458.50,234.00
             458.50,234.00 456.00,245.00 456.00,245.00
             456.00,245.00 446.00,254.50 446.00,254.50M 437.50,250.50M 458.00,255.50
           C 458.00,255.50 465.50,250.50 465.50,250.50
             465.50,250.50 470.00,254.50 470.00,254.50
             470.00,254.50 479.00,251.50 479.00,251.50
             479.00,251.50 477.50,246.00 477.50,246.00
             477.50,246.00 472.50,239.50 472.50,239.50
             472.50,239.50 473.50,230.00 473.50,230.00
             473.50,230.00 480.00,230.50 480.00,230.50
             480.00,230.50 482.00,233.00 482.00,233.00" />
</svg>
