<?xml version="1.0" encoding="UTF-8" standalone="no"?>
<!DOCTYPE svg PUBLIC "-//W3C//DTD SVG 20010904//EN"
              "http://www.w3.org/TR/2001/REC-SVG-20010904/DTD/svg10.dtd">

<svg xmlns="http://www.w3.org/2000/svg"
     width="1.66667in" height="1.66667in"
     viewBox="0 0 500 500">
  <path id="Selection"
        fill="none" stroke="black" stroke-width="1"
        d="M 314.00,293.00
           C 314.00,293.00 322.80,245.00 322.80,245.00
             324.51,236.45 323.71,231.10 334.00,230.00
             334.00,230.00 320.00,295.00 320.00,295.00
             323.51,292.26 323.66,291.69 328.00,293.00
             328.00,293.00 336.80,245.00 336.80,245.00
             338.51,236.45 337.71,231.10 348.00,230.00
             348.00,230.00 334.00,295.00 334.00,295.00
             334.00,295.00 341.00,292.00 341.00,292.00
             341.03,283.38 343.04,276.77 351.00,272.01
             357.98,267.83 367.33,270.29 368.78,279.00
             369.97,286.20 365.94,295.09 359.98,299.15
             353.76,303.40 345.77,303.12 342.00,296.00
             342.00,296.00 340.00,296.00 340.00,296.00
             336.01,302.99 329.13,304.52 328.00,295.00
             323.32,300.25 315.43,307.02 314.00,295.00
             309.32,300.25 301.43,307.02 300.00,295.00
             298.12,296.82 296.27,298.80 294.00,300.15
             287.76,303.85 281.49,301.81 281.04,294.00
             280.65,287.12 282.78,281.24 287.33,276.04
             292.30,270.35 295.10,270.29 302.00,270.08
             305.78,269.96 308.38,268.84 312.00,268.00
             312.00,268.00 306.00,295.00 306.00,295.00
             309.49,292.19 309.69,291.42 314.00,293.00 Z
           M 47.00,276.00
           C 50.24,275.97 60.08,275.60 62.27,273.40
             64.09,271.57 64.87,265.65 65.40,263.00
             65.40,263.00 69.00,246.00 69.00,246.00
             69.57,243.22 70.17,238.59 71.85,236.39
             73.80,233.85 77.06,232.84 80.00,232.00
             80.00,232.00 66.00,301.00 66.00,301.00
             66.00,301.00 59.00,301.00 59.00,301.00
             56.55,292.44 51.16,286.13 44.00,281.00
             40.62,292.59 29.99,301.93 18.00,303.85
             18.00,303.85 4.00,303.85 4.00,303.85
             4.00,303.85 5.00,296.00 5.00,296.00
             9.57,296.38 14.82,298.32 19.00,297.46
             33.68,294.43 39.77,274.66 43.12,262.00
             48.35,242.16 45.33,238.34 57.00,235.00
             56.90,246.36 51.25,265.30 47.00,276.00 Z
           M 254.00,276.00
           C 257.24,275.97 267.08,275.60 269.27,273.40
             271.09,271.57 271.87,265.65 272.40,263.00
             272.40,263.00 276.00,246.00 276.00,246.00
             276.57,243.22 277.17,238.59 278.85,236.39
             280.80,233.85 284.06,232.84 287.00,232.00
             287.00,232.00 273.00,301.00 273.00,301.00
             273.00,301.00 266.00,301.00 266.00,301.00
             263.55,292.44 258.16,286.13 251.00,281.00
             246.01,298.08 226.90,307.80 210.00,303.00
             210.00,303.00 212.00,296.00 212.00,296.00
             216.57,296.38 221.82,298.32 226.00,297.46
             240.68,294.43 246.77,274.66 250.12,262.00
             255.35,242.16 252.33,238.34 264.00,235.00
             263.90,246.36 258.25,265.30 254.00,276.00 Z
           M 93.00,295.00
           C 91.12,296.82 89.27,298.80 87.00,300.15
             80.76,303.85 74.49,301.81 74.04,294.00
             73.65,287.12 75.78,281.24 80.33,276.04
             85.30,270.35 88.10,270.29 95.00,270.08
             98.78,269.96 101.38,268.84 105.00,268.00
             105.00,268.00 99.00,295.00 99.00,295.00
             102.49,292.19 102.69,291.42 107.00,293.00
             111.71,275.24 108.11,271.23 120.00,269.00
             120.00,269.00 119.00,274.00 119.00,274.00
             128.44,267.34 136.52,269.22 135.96,282.00
             135.64,289.32 131.05,298.13 124.00,300.99
             119.71,302.74 116.18,301.16 113.56,303.60
             107.56,309.20 114.27,319.57 102.00,320.00
             102.00,320.00 107.00,295.00 107.00,295.00
             102.32,300.25 94.43,307.02 93.00,295.00 Z
           M 395.00,293.00
           C 396.41,290.07 399.67,284.70 400.35,282.00
             401.91,275.77 395.54,271.11 406.00,268.00
             409.98,278.62 406.99,283.97 401.00,293.00
             399.00,296.01 393.27,304.75 388.85,300.39
             387.73,299.28 386.61,295.60 386.00,294.00
             384.38,297.01 380.60,303.22 376.30,300.92
             373.17,299.25 373.12,293.10 372.72,290.00
             371.53,280.85 367.13,271.27 379.00,269.00
             379.00,276.60 377.79,286.08 381.00,293.00
             386.20,282.20 386.28,284.68 384.00,272.00
             384.00,272.00 392.00,269.00 392.00,269.00
             392.02,274.75 392.54,288.32 395.00,293.00 Z
           M 133.00,320.00
           C 133.00,320.00 139.40,287.00 139.40,287.00
             139.40,287.00 142.95,272.64 142.95,272.64
             142.95,272.64 151.00,269.00 151.00,269.00
             151.00,269.00 150.00,274.00 150.00,274.00
             159.44,267.34 167.52,269.22 166.96,282.00
             166.64,289.32 162.05,298.13 155.00,300.99
             150.71,302.74 147.18,301.16 144.56,303.60
             138.56,309.20 145.27,319.57 133.00,320.00 Z
           M 182.00,301.00
           C 180.35,301.40 178.72,301.86 177.00,301.85
             167.17,301.78 170.01,289.20 171.20,283.00
             171.72,280.28 172.29,274.66 173.90,272.64
             175.83,270.23 179.15,269.54 182.00,269.00
             182.00,269.00 176.00,296.00 176.00,296.00
             189.48,292.04 184.86,278.11 189.73,272.50
             191.54,270.42 194.47,269.69 197.00,269.00
             197.00,269.00 190.37,299.00 190.37,299.00
             188.76,305.43 187.86,311.00 182.90,315.89
             179.17,319.57 176.08,320.25 171.00,319.96
             168.44,319.81 164.68,319.29 164.82,315.89
             164.89,314.13 166.15,312.46 167.00,311.00
             169.09,311.86 172.90,314.11 174.96,313.84
             179.99,313.16 181.63,305.07 182.00,301.00 Z
           M 457.00,293.00
           C 457.17,289.20 459.19,274.32 461.57,271.97
             463.52,270.04 466.43,269.48 469.00,269.00
             469.00,269.00 467.00,277.00 467.00,277.00
             468.50,275.54 470.33,273.65 472.00,272.43
             476.62,269.07 483.06,269.25 483.82,276.00
             484.24,279.82 480.72,289.87 480.00,295.00
             480.00,295.00 486.00,291.00 486.00,291.00
             489.75,299.39 479.21,303.65 475.87,300.26
             471.80,296.41 475.57,282.21 475.87,277.00
             471.13,280.57 469.05,283.64 466.37,289.00
             461.81,298.11 464.00,301.14 455.00,302.00
             455.00,302.00 455.00,293.00 455.00,293.00
             451.81,299.69 443.12,305.11 436.11,300.26
             433.46,298.44 432.37,295.76 431.00,293.00
             429.59,295.95 428.74,297.38 425.98,299.35
             424.15,300.66 422.23,301.47 420.00,301.79
             405.39,303.88 404.12,284.40 415.04,274.11
             417.90,271.41 421.90,269.03 425.94,270.60
             430.44,272.35 430.45,277.26 428.55,280.99
             425.91,286.14 420.45,288.96 415.00,290.00
             419.10,297.34 422.33,296.13 427.00,290.00
             427.00,290.00 432.00,292.00 432.00,292.00
             432.01,288.23 431.82,285.58 433.36,282.00
             435.82,276.31 446.22,264.92 452.40,272.31
             457.28,278.15 449.66,287.98 439.00,290.00
             443.10,297.34 446.33,296.13 451.00,290.00
             451.00,290.00 457.00,293.00 457.00,293.00 Z
           M 119.00,274.00
           C 119.00,274.00 118.00,274.00 118.00,274.00
             118.00,274.00 119.00,275.00 119.00,275.00
             119.00,275.00 119.00,274.00 119.00,274.00 Z
           M 150.00,274.00
           C 150.00,274.00 149.00,274.00 149.00,274.00
             149.00,274.00 150.00,275.00 150.00,275.00
             150.00,275.00 150.00,274.00 150.00,274.00 Z
           M 82.00,296.00
           C 88.43,294.11 91.34,289.09 93.41,283.00
             94.06,281.24 95.28,277.44 93.41,276.08
             91.03,274.43 87.79,277.41 86.39,279.06
             82.53,283.60 80.87,290.24 82.00,296.00 Z
           M 289.00,296.00
           C 295.43,294.11 298.34,289.09 300.41,283.00
             301.06,281.24 302.28,277.44 300.41,276.08
             298.03,274.43 294.79,277.41 293.39,279.06
             289.53,283.60 287.87,290.24 289.00,296.00 Z
           M 356.93,275.56
           C 351.36,277.72 348.81,284.29 348.34,290.00
             348.10,292.95 349.12,297.18 353.03,296.26
             359.20,294.80 365.28,276.51 356.93,275.56 Z
           M 424.00,275.00
           C 418.95,277.45 417.56,279.72 416.00,285.00
             420.59,281.63 421.66,280.13 424.00,275.00 Z
           M 448.00,275.00
           C 442.95,277.45 441.56,279.72 440.00,285.00
             444.59,281.63 445.66,280.13 448.00,275.00 Z
           M 128.00,276.00
           C 118.95,277.50 116.28,288.36 114.00,296.00
             125.63,300.70 127.98,284.01 128.00,276.00 Z
           M 159.00,276.00
           C 149.95,277.50 147.28,288.36 145.00,296.00
             156.63,300.70 158.98,284.01 159.00,276.00 Z
           M 467.00,278.00
           C 467.00,278.00 466.00,278.00 466.00,278.00
             466.00,278.00 467.00,279.00 467.00,279.00
             467.00,279.00 467.00,278.00 467.00,278.00 Z
           M 62.00,280.00
           C 62.00,280.00 54.00,280.00 54.00,280.00
             55.99,284.16 56.84,285.01 61.00,287.00
             61.00,287.00 62.00,280.00 62.00,280.00 Z
           M 269.00,280.00
           C 269.00,280.00 261.00,280.00 261.00,280.00
             262.99,284.16 263.84,285.01 268.00,287.00
             268.00,287.00 269.00,280.00 269.00,280.00 Z" />
</svg>
