<?xml version="1.0" encoding="UTF-8" standalone="no"?>
<!DOCTYPE svg PUBLIC "-//W3C//DTD SVG 20010904//EN"
              "http://www.w3.org/TR/2001/REC-SVG-20010904/DTD/svg10.dtd">

<svg xmlns="http://www.w3.org/2000/svg"
     width="1.66667in" height="1.66667in"
     viewBox="0 0 500 500">
  <path id="Selection #2"
        fill="none" stroke="black" stroke-width="1"
        d="M 262.00,211.00
           C 267.46,209.09 272.65,206.74 276.20,201.91
             277.63,199.95 279.37,196.78 277.36,194.60
             272.55,189.40 261.08,200.76 258.09,204.00
             251.73,210.90 246.67,221.54 246.09,231.00
             245.46,241.32 251.98,253.61 264.00,250.21
             270.47,248.38 282.76,239.00 285.57,233.00
             285.57,233.00 290.60,209.00 290.60,209.00
             290.60,209.00 292.92,197.00 292.92,197.00
             294.37,188.47 294.63,185.76 304.00,184.00
             304.00,184.00 292.00,233.00 292.00,233.00
             292.00,233.00 297.00,228.23 297.00,228.23
             301.63,224.44 308.96,223.37 309.82,231.00
             310.24,234.82 306.72,244.87 306.00,250.00
             308.71,247.57 315.42,237.46 315.76,234.00
             316.35,231.16 313.97,225.90 315.76,222.15
             316.97,218.98 320.86,218.39 322.83,221.31
             324.05,223.14 323.95,225.89 324.00,228.00
             324.00,228.00 334.00,226.00 334.00,226.00
             334.00,226.00 328.45,240.00 328.45,240.00
             328.45,240.00 325.00,251.00 325.00,251.00
             327.86,248.85 333.98,242.99 335.49,239.83
             339.27,231.91 333.46,227.19 347.00,224.00
             347.00,224.00 341.00,250.00 341.00,250.00
             341.00,250.00 350.00,245.00 350.00,245.00
             351.37,246.75 352.84,249.00 355.02,249.83
             357.37,250.73 359.34,249.29 358.66,247.03
             357.74,243.93 352.54,242.15 351.32,237.00
             349.76,230.45 354.62,225.44 361.00,225.15
             361.00,225.15 367.42,225.93 367.42,225.93
             371.31,225.90 369.87,225.02 375.00,225.93
             378.71,213.18 375.85,214.08 386.00,210.00
             386.00,210.00 383.00,226.00 383.00,226.00
             383.00,226.00 400.00,224.00 400.00,224.00
             400.00,224.00 398.00,232.00 398.00,232.00
             402.49,227.30 412.08,219.56 414.00,231.00
             414.00,231.00 418.00,227.43 418.00,227.43
             422.06,224.49 427.68,224.00 428.77,230.04
             429.97,236.67 425.57,242.86 427.00,250.00
             429.23,245.35 430.59,245.40 432.93,241.83
             436.72,236.04 437.43,230.25 445.00,226.45
             449.53,224.18 452.65,225.59 457.00,224.82
             457.00,224.82 464.00,223.00 464.00,223.00
             464.00,223.00 458.00,250.00 458.00,250.00
             458.00,250.00 467.00,245.00 467.00,245.00
             468.37,246.75 469.84,249.00 472.02,249.83
             474.69,250.86 476.79,248.92 475.26,246.15
             473.97,243.82 470.04,241.93 468.41,238.00
             468.07,236.55 467.98,234.51 468.41,233.00
             469.49,225.38 478.87,223.72 482.72,226.17
             486.65,228.68 486.13,233.75 480.00,236.00
             478.57,231.52 477.52,231.26 473.00,232.00
             476.00,235.85 481.45,239.45 482.55,244.00
             484.18,250.66 478.42,256.54 472.00,256.86
             468.53,257.03 466.11,255.74 464.00,255.58
             458.56,255.17 453.23,260.36 452.00,250.00
             446.40,255.42 437.01,262.06 433.00,251.00
             433.00,251.00 429.00,254.69 429.00,254.69
             425.04,257.63 421.25,257.36 420.23,251.98
             419.18,246.49 420.87,237.76 421.00,232.00
             421.00,232.00 412.31,245.00 412.31,245.00
             412.31,245.00 408.16,254.58 408.16,254.58
             408.16,254.58 402.00,258.00 402.00,258.00
             402.00,258.00 406.00,232.00 406.00,232.00
             401.76,236.46 400.05,238.45 397.27,244.00
             392.04,254.45 395.60,254.72 386.00,258.00
             386.00,258.00 387.00,251.00 387.00,251.00
             385.41,252.49 383.87,254.11 382.00,255.26
             377.29,258.17 372.07,256.94 371.15,251.00
             370.30,245.56 372.93,236.67 374.00,231.00
             374.00,231.00 363.00,236.00 363.00,236.00
             361.57,231.52 360.52,231.26 356.00,232.00
             359.22,236.14 365.08,239.76 365.73,245.00
             366.58,251.83 360.47,257.03 354.00,256.86
             354.00,256.86 347.00,255.58 347.00,255.58
             341.42,255.16 337.06,260.11 335.00,251.00
             335.00,251.00 329.00,255.03 329.00,255.03
             322.59,258.53 317.74,256.81 318.05,249.00
             318.26,243.58 321.38,238.60 324.00,234.00
             317.85,240.14 316.44,248.55 312.61,252.53
             311.66,253.52 310.19,254.68 308.98,255.35
             299.39,260.65 299.52,248.92 300.29,243.00
             300.29,243.00 302.00,232.00 302.00,232.00
             297.15,235.56 295.04,238.58 292.49,244.00
             288.26,253.01 290.46,255.57 282.00,257.00
             282.00,257.00 283.00,247.00 283.00,247.00
             272.70,252.57 268.40,257.29 256.00,256.99
             240.92,256.62 237.85,245.74 238.00,233.00
             238.19,216.66 251.60,197.56 266.00,190.38
             275.97,185.41 288.72,188.26 284.15,202.00
             281.18,210.90 272.98,216.59 264.00,218.00
             264.00,218.00 262.00,211.00 262.00,211.00 Z
           M 65.00,217.00
           C 62.72,215.62 60.64,214.57 59.60,211.91
             57.47,206.43 62.75,193.93 67.10,190.43
             72.67,185.95 78.17,188.58 80.20,195.00
             80.94,197.34 80.97,199.58 81.00,202.00
             81.00,202.00 81.00,214.00 81.00,214.00
             82.66,208.19 88.68,197.42 93.30,193.57
             96.53,190.88 101.50,189.95 103.99,194.15
             106.62,198.62 103.20,206.38 103.99,212.00
             105.82,207.05 109.63,199.86 114.09,196.89
             118.18,194.17 123.31,194.72 124.69,200.02
             125.73,204.06 123.84,211.80 123.00,216.00
             123.00,216.00 117.00,245.00 117.00,245.00
             128.48,240.83 122.16,235.42 133.00,227.43
             136.48,224.87 142.40,223.68 144.97,228.15
             149.81,236.54 136.01,243.31 134.37,244.95
             132.70,246.62 132.77,248.84 135.16,249.76
             138.79,251.14 142.05,246.41 143.85,244.00
             145.66,241.56 150.44,236.54 150.90,233.96
             151.41,231.11 147.54,221.59 153.13,219.66
             158.48,217.80 158.91,224.65 159.00,228.00
             159.00,228.00 169.00,226.00 169.00,226.00
             169.00,226.00 163.45,240.00 163.45,240.00
             163.45,240.00 160.00,251.00 160.00,251.00
             163.21,248.54 171.19,237.84 171.89,234.00
             172.43,231.07 168.54,221.59 174.13,219.66
             179.48,217.80 179.91,224.65 180.00,228.00
             180.00,228.00 190.00,226.00 190.00,226.00
             190.00,226.00 184.45,240.00 184.45,240.00
             184.45,240.00 181.00,251.00 181.00,251.00
             184.84,248.11 190.74,241.32 192.84,237.00
             195.94,230.65 192.07,226.24 204.00,224.00
             204.00,224.00 198.00,251.00 198.00,251.00
             211.48,247.04 206.86,233.11 211.73,227.50
             213.54,225.42 216.47,224.69 219.00,224.00
             219.00,224.00 212.37,254.00 212.37,254.00
             210.76,260.43 209.86,266.00 204.90,270.89
             201.17,274.57 198.08,275.25 193.00,274.96
             190.44,274.81 186.68,274.29 186.82,270.89
             186.89,269.13 188.15,267.46 189.00,266.00
             191.09,266.86 194.90,269.11 196.96,268.84
             201.99,268.16 203.63,260.07 204.00,256.00
             197.50,257.57 193.25,257.65 192.00,250.00
             192.00,250.00 186.00,254.44 186.00,254.44
             184.75,255.20 183.42,255.94 182.00,256.34
             176.68,257.82 174.10,255.16 174.03,250.00
             173.95,244.05 177.15,239.01 180.00,234.00
             173.78,240.21 172.51,249.36 165.96,253.89
             159.74,258.20 152.68,258.43 153.05,249.00
             153.26,243.58 156.38,238.60 159.00,234.00
             153.64,239.35 148.83,252.06 139.00,255.96
             136.00,257.20 131.96,257.33 129.04,255.96
             125.67,254.10 120.28,245.71 115.00,255.96
             115.00,255.96 107.00,255.96 107.00,255.96
             107.00,255.96 117.00,202.00 117.00,202.00
             107.71,212.99 101.83,227.45 97.33,241.00
             92.70,254.95 95.42,255.88 86.00,256.00
             86.00,256.00 97.00,198.00 97.00,198.00
             85.72,210.40 74.75,239.41 71.00,256.00
             71.00,256.00 63.00,256.00 63.00,256.00
             67.19,235.15 74.00,214.42 74.00,193.00
             66.82,199.34 67.61,208.48 65.00,217.00 Z
           M 344.31,207.04
           C 347.99,205.95 351.80,207.58 350.34,211.86
             348.38,217.62 337.78,213.99 344.31,207.04 Z
           M 391.00,228.00
           C 386.38,232.43 385.13,230.09 382.72,231.99
             379.49,234.55 378.08,247.14 379.00,251.00
             387.95,244.03 390.49,239.15 391.00,228.00 Z
           M 140.00,230.00
           C 134.95,232.45 133.56,234.72 132.00,240.00
             136.59,236.63 137.66,235.13 140.00,230.00 Z
           M 441.00,251.00
           C 447.43,249.11 450.34,244.09 452.41,238.00
             453.06,236.24 454.28,232.44 452.41,231.08
             450.03,229.43 446.79,232.41 445.39,234.06
             441.53,238.60 439.87,245.24 441.00,251.00 Z" />
</svg>
